<?xml version="1.0" encoding="UTF-8"?>
<svg id="Layer_1" data-name="Layer 1" xmlns="http://www.w3.org/2000/svg" xmlns:xlink="http://www.w3.org/1999/xlink" version="1.1" viewBox="0 0 166.5 197.88">
  <defs>
    <style>
      .cls-1 {
        clip-path: url(#clippath);
      }

      .cls-2, .cls-3, .cls-4, .cls-5, .cls-6 {
        fill: none;
      }

      .cls-2, .cls-7 {
        stroke-width: 0px;
      }

      .cls-3 {
        stroke: #cc8714;
      }

      .cls-3, .cls-4, .cls-5, .cls-6 {
        stroke-width: 4px;
      }

      .cls-4 {
        stroke: #846caa;
      }

      .cls-5 {
        stroke: #79bc6f;
      }

      .cls-7 {
        fill: #fff;
      }

      .cls-6 {
        stroke: #d74d3b;
      }
    </style>
    <clipPath id="clippath">
      <rect class="cls-2" width="166.5" height="197.88"/>
    </clipPath>
  </defs>
  <g class="cls-1">
    <path class="cls-5" d="M104.59,195.88c33.09,0,59.91-43.4,59.91-96.94S137.68,2,104.59,2s-59.91,43.4-59.91,96.94,26.82,96.94,59.91,96.94Z"/>
    <ellipse class="cls-4" cx="78.44" cy="97.95" rx="76.44" ry="54.39"/>
    <ellipse class="cls-6" cx="93.71" cy="92.86" rx="69.66" ry="70.51"/>
    <ellipse class="cls-3" cx="101.39" cy="109.4" rx="63.11" ry="65.84"/>
    <path class="cls-7" d="M128.12,99.7l2.25-5.85,2.22,5.85h-4.47ZM123.08,105.18h2.87l1.3-3.29h6.24l1.34,3.29h2.93l-6.2-14.39h-2.21l-6.26,14.39ZM113.35,105.18h2.56v-12.15h4.41v-2.24h-11.38v2.24h4.41v12.15ZM104.04,91.97c-.56-.51-1.21-.9-1.96-1.16-.75-.26-1.49-.39-2.22-.39-.65,0-1.29.08-1.92.25-.63.17-1.19.43-1.69.77-.5.35-.89.78-1.2,1.31-.31.53-.46,1.16-.46,1.89,0,.68.11,1.24.33,1.7.22.45.5.84.84,1.15.35.31.74.56,1.17.75.43.19.87.35,1.3.49.45.15.87.29,1.28.43.41.14.76.29,1.06.48.3.18.54.4.71.65.18.25.26.57.26.94s-.08.72-.23.99c-.16.26-.36.49-.61.66-.25.18-.53.3-.84.38-.31.07-.62.11-.92.11-.57,0-1.15-.14-1.74-.43-.59-.28-1.06-.67-1.41-1.16l-1.83,1.71c.57.68,1.3,1.19,2.19,1.53.89.35,1.81.52,2.74.52.7,0,1.38-.1,2.01-.29.64-.19,1.19-.47,1.67-.85.47-.38.85-.86,1.14-1.43.28-.58.43-1.25.43-2.02,0-.7-.13-1.29-.4-1.77-.26-.47-.6-.87-1.02-1.18-.41-.31-.87-.56-1.36-.75-.5-.19-.97-.36-1.43-.51-.41-.12-.78-.24-1.12-.36-.34-.12-.63-.26-.86-.43-.24-.16-.42-.36-.56-.59-.14-.23-.2-.51-.2-.83,0-.35.08-.65.23-.9.16-.25.36-.45.6-.61.24-.16.51-.27.81-.35.3-.07.6-.11.89-.11.5,0,1,.12,1.49.36.49.24.88.53,1.15.88l1.67-1.83ZM78.58,105.18h9.9v-2.28h-7.34v-4.06h6.6v-2.15h-6.6v-3.66h6.97v-2.24h-9.53v14.39ZM72.7,92.62c-.29-.38-.63-.7-1.04-.97-.41-.27-.84-.5-1.3-.68-.46-.18-.94-.32-1.44-.41-.5-.09-.98-.13-1.44-.13-1.11,0-2.14.18-3.09.53-.95.35-1.77.85-2.47,1.5-.7.65-1.25,1.44-1.65,2.37-.4.93-.6,1.97-.6,3.12s.19,2.15.57,3.08c.38.93.91,1.73,1.58,2.4.68.67,1.49,1.19,2.43,1.56.94.37,1.97.56,3.1.56,1.23,0,2.31-.22,3.23-.66.92-.44,1.7-1.06,2.34-1.86l-2.05-1.44c-.37.5-.85.9-1.44,1.21s-1.28.46-2.05.46-1.42-.13-2.01-.39c-.6-.26-1.11-.62-1.54-1.09-.43-.47-.75-1.03-.98-1.68-.23-.65-.35-1.37-.35-2.16,0-.74.12-1.44.36-2.07.24-.64.58-1.19,1.02-1.67.44-.47.97-.85,1.58-1.12.61-.27,1.29-.41,2.03-.41.58,0,1.18.12,1.79.36.61.24,1.1.61,1.48,1.13l1.95-1.54Z"/>
  </g>
</svg>